<svg width="24" height="24" viewBox="0 0 24 24" fill="none" xmlns="http://www.w3.org/2000/svg">
<g clip-path="url(#clip0_624_1322)">
<path d="M6 0C5.20435 0 4.44129 0.316071 3.87868 0.87868C3.31607 1.44129 3 2.20435 3 3V21C3 21.7956 3.31607 22.5587 3.87868 23.1213C4.44129 23.6839 5.20435 24 6 24H18C18.7956 24 19.5587 23.6839 20.1213 23.1213C20.6839 22.5587 21 21.7956 21 21V3C21 2.20435 20.6839 1.44129 20.1213 0.87868C19.5587 0.316071 18.7956 0 18 0L6 0ZM6 1.5H18C18.3978 1.5 18.7794 1.65804 19.0607 1.93934C19.342 2.22064 19.5 2.60218 19.5 3V21C19.5 21.3978 19.342 21.7794 19.0607 22.0607C18.7794 22.342 18.3978 22.5 18 22.5H6C5.60218 22.5 5.22064 22.342 4.93934 22.0607C4.65804 21.7794 4.5 21.3978 4.5 21V3C4.5 2.60218 4.65804 2.22064 4.93934 1.93934C5.22064 1.65804 5.60218 1.5 6 1.5Z" fill="white"/>
<path d="M6.83199 17.7936C6.53963 17.6766 6.30408 17.4508 6.17499 17.1636C5.88249 16.5816 5.97999 15.9996 6.29499 15.5106C6.59199 15.0501 7.08399 14.6586 7.64049 14.3301C8.3454 13.9303 9.09053 13.606 9.86349 13.3626C10.4638 12.2834 10.9958 11.1678 11.4565 10.0221C11.1811 9.39623 10.9651 8.74586 10.8115 8.07957C10.6825 7.47957 10.633 6.88557 10.7425 6.37557C10.855 5.84457 11.1535 5.36757 11.7175 5.14107C12.0055 5.02557 12.3175 4.96107 12.6205 5.02557C12.7729 5.05802 12.9162 5.12398 13.0399 5.21868C13.1637 5.31338 13.2648 5.43444 13.336 5.57307C13.468 5.81907 13.516 6.10707 13.5265 6.38007C13.537 6.66057 13.5085 6.97257 13.456 7.30107C13.33 8.06607 13.051 9.00207 12.676 9.99207C13.0898 10.8771 13.5818 11.7234 14.146 12.5211C14.8136 12.4683 15.4852 12.4935 16.147 12.5961C16.693 12.6936 17.248 12.8886 17.587 13.2936C17.767 13.5096 17.8765 13.7736 17.887 14.0706C17.8975 14.3586 17.8165 14.6436 17.68 14.9151C17.5618 15.1667 17.3784 15.3821 17.149 15.5391C16.9222 15.687 16.6544 15.7595 16.384 15.7461C15.8875 15.7251 15.403 15.4521 14.9845 15.1206C14.4756 14.6998 14.0171 14.2216 13.618 13.6956C12.6036 13.8106 11.6013 14.0144 10.6225 14.3046C10.1738 15.0995 9.6616 15.857 9.09099 16.5696C8.65599 17.0946 8.17899 17.5521 7.70199 17.7501C7.42793 17.8741 7.11706 17.8896 6.83199 17.7936ZM8.90049 14.9421C8.65149 15.0561 8.42049 15.1761 8.21199 15.2991C7.71999 15.5901 7.40049 15.8736 7.24149 16.1196C7.10049 16.3371 7.09749 16.4946 7.18149 16.6611C7.19649 16.6941 7.21149 16.7151 7.22049 16.7271C7.23838 16.7223 7.25593 16.7163 7.27299 16.7091C7.47849 16.6251 7.80549 16.3566 8.22549 15.8511C8.46436 15.5586 8.6896 15.2553 8.90049 14.9421ZM11.3605 12.9471C11.8614 12.8301 12.3668 12.7335 12.8755 12.6576C12.6022 12.2397 12.347 11.8103 12.1105 11.3706C11.8753 11.9025 11.6252 12.4277 11.3605 12.9456V12.9471ZM15.0295 13.6221C15.2545 13.8651 15.4735 14.0721 15.682 14.2371C16.042 14.5221 16.2925 14.6166 16.429 14.6211C16.4655 14.6258 16.5026 14.6179 16.534 14.5986C16.5964 14.5493 16.645 14.4847 16.675 14.4111C16.7283 14.3197 16.7587 14.2168 16.7635 14.1111C16.7626 14.0758 16.7487 14.0422 16.7245 14.0166C16.6465 13.9236 16.4245 13.7886 15.9475 13.7031C15.6441 13.6524 15.3371 13.6258 15.0295 13.6236V13.6221ZM12.0445 8.36307C12.1707 7.95585 12.2709 7.54101 12.3445 7.12107C12.391 6.83907 12.409 6.60657 12.4015 6.42357C12.4019 6.32261 12.3857 6.22226 12.3535 6.12657C12.2785 6.13586 12.2052 6.15607 12.136 6.18657C12.0055 6.23907 11.899 6.34557 11.842 6.61107C11.782 6.89907 11.797 7.31457 11.911 7.84407C11.947 8.01057 11.992 8.18457 12.046 8.36307H12.0445Z" fill="white"/>
</g>
<defs>
<clipPath id="clip0_624_1322">
<rect width="24" height="24" fill="white"/>
</clipPath>
</defs>
</svg>
