<svg width="307" height="98" viewBox="0 0 307 98" fill="none" xmlns="http://www.w3.org/2000/svg">
<g clip-path="url(#clip0_614_457)">
<path fill-rule="evenodd" clip-rule="evenodd" d="M97.8757 -0.000120998H48.9381C22.0223 -0.000120998 0.000488281 22.0497 0.000488281 48.9999V97.9999H34.5857V83.9932V63.3706L21.2839 76.6894V83.9932H13.9894V48.9999C13.9894 29.781 29.7437 14.0066 48.9381 14.0066H83.8868V49.9111C83.8868 57.645 81.2659 64.8056 76.8722 70.5466V21.0298L63.5703 34.3486V95.9835C83.3542 90.035 97.8757 71.59 97.8757 49.9107V-0.000488281V-0.000120998ZM42.4271 55.5192L55.7289 42.2004V97.6367C53.8006 97.8754 51.8381 97.9999 49.8481 97.9999H42.4271V55.5192Z" fill="white"/>
<path d="M118.009 0H114.63V98H118.009V0Z" fill="white"/>
<path d="M140.132 12.0803H150.254V16.0018H140.132V12.0803ZM140.493 23.6938H135.613V2.57869H151.55V6.50018H140.493V23.6938ZM154.863 23.6938V2.57869H159.744V23.6938H154.863ZM164.745 23.6938V2.57869H168.782L181.224 17.7817H179.266V2.57869H184.086V23.6938H180.079L167.607 8.49085H169.566V23.6938H164.745H164.745ZM186.315 23.6938L195.714 2.57869H200.534L209.964 23.6938H204.842L197.13 5.05198H199.058L191.316 23.6938H186.315ZM191.015 19.1692L192.31 15.459H203.155L204.481 19.1692H191.015ZM212.163 23.6938V2.57869H216.2L228.642 17.7817H226.684V2.57869H231.504V23.6938H227.498L215.026 8.49085H216.984V23.6938H212.164H212.163ZM246.597 24.056C244.97 24.056 243.459 23.7897 242.063 23.2567C240.667 22.7238 239.457 21.9646 238.433 20.9792C237.409 19.9938 236.61 18.8376 236.038 17.5102C235.465 16.1829 235.179 14.7251 235.179 13.1363C235.179 11.5478 235.465 10.0896 236.038 8.76228C236.61 7.43491 237.413 6.27871 238.448 5.29329C239.482 4.30786 240.692 3.54869 242.078 3.01576C243.464 2.48283 244.98 2.21655 246.627 2.21655C248.455 2.21655 250.107 2.53315 251.583 3.16671C253.059 3.80028 254.299 4.73024 255.303 5.95697L252.17 8.85263C251.447 8.02808 250.644 7.40994 249.76 6.99748C248.876 6.58539 247.912 6.37934 246.868 6.37934C245.884 6.37934 244.98 6.54021 244.157 6.86195C243.333 7.18369 242.62 7.6461 242.018 8.24955C241.415 8.85263 240.948 9.56663 240.617 10.3912C240.286 11.2157 240.12 12.1306 240.12 13.1363C240.12 14.1419 240.286 15.0568 240.617 15.8813C240.948 16.7059 241.415 17.4199 242.018 18.023C242.62 18.6264 243.333 19.0888 244.157 19.4106C244.98 19.7323 245.884 19.8932 246.868 19.8932C247.912 19.8932 248.876 19.6871 249.76 19.275C250.644 18.8629 251.447 18.2345 252.17 17.3898L255.303 20.2854C254.299 21.5121 253.059 22.4473 251.583 23.0907C250.106 23.7342 248.445 24.056 246.597 24.056ZM258.587 23.6938V2.57869H263.468V23.6938H258.587ZM265.697 23.6938L275.096 2.57869H279.917L289.346 23.6938H284.225L276.512 5.05198H278.44L270.698 23.6938H265.697ZM270.397 19.1692L271.692 15.459H282.538L283.863 19.1692H270.397ZM291.545 23.6938V2.57869H296.426V19.7121H307V23.6938H291.545ZM135.613 56.1367V35.0216H140.493V52.155H151.068V56.1367H135.613ZM158.298 43.5278H168.45V47.3285H158.298V43.5278ZM158.66 52.2152H170.138V56.1367H153.809V35.0216H169.746V38.9431H158.66V52.2156V52.2152ZM171.252 56.1367L180.652 35.0216H185.472L194.901 56.1367H189.78L182.068 37.4949H183.995L176.253 56.1367H171.252ZM175.952 51.6121L177.247 47.9018H188.093L189.419 51.6121H175.952ZM201.619 44.5236H211.741V48.445H201.619V44.5236ZM201.981 56.1371H197.1V35.0219H213.037V38.9434H201.981V56.1371ZM145.796 88.9421C144.129 88.9421 142.597 88.6758 141.201 88.1429C139.806 87.6099 138.59 86.8508 137.556 85.8653C136.522 84.8799 135.719 83.7237 135.146 82.3963C134.574 81.069 134.288 79.6112 134.288 78.0224C134.288 76.4339 134.574 74.9757 135.146 73.6484C135.719 72.321 136.527 71.1648 137.571 70.1794C138.616 69.194 139.841 68.4348 141.247 67.9019C142.653 67.3689 144.199 67.1027 145.886 67.1027C147.754 67.1027 149.436 67.4145 150.932 68.0378C152.428 68.661 153.689 69.566 154.713 70.7527L151.58 73.6484C150.816 72.844 149.983 72.2457 149.079 71.8535C148.175 71.4612 147.191 71.2654 146.127 71.2654C145.103 71.2654 144.169 71.4263 143.325 71.7481C142.482 72.0698 141.754 72.5322 141.141 73.1357C140.529 73.7387 140.057 74.4527 139.725 75.2773C139.394 76.1018 139.228 77.0167 139.228 78.0224C139.228 79.0078 139.394 79.9128 139.725 80.7373C140.057 81.5619 140.529 82.2806 141.141 82.894C141.754 83.5074 142.477 83.9749 143.31 84.2967C144.144 84.6184 145.062 84.7793 146.067 84.7793C147.031 84.7793 147.97 84.6235 148.884 84.3117C149.798 83.9999 150.686 83.4721 151.55 82.728L154.322 86.2572C153.177 87.1218 151.846 87.7855 150.33 88.2479C148.813 88.7103 147.302 88.9417 145.796 88.9417V88.9421ZM149.863 85.624V77.6907H154.322V86.2576L149.863 85.624ZM158.84 88.5803V67.4652H167.969C169.857 67.4652 171.483 67.7719 172.849 68.3852C174.215 68.9986 175.269 69.8782 176.012 71.0245C176.755 72.1708 177.127 73.5382 177.127 75.1271C177.127 76.6957 176.755 78.0481 176.012 79.1841C175.269 80.3204 174.215 81.1898 172.849 81.7933C171.483 82.3963 169.857 82.6982 167.969 82.6982H161.552L163.721 80.5566V88.5803H158.84ZM172.247 88.5803L166.975 80.9184H172.187L177.519 88.5803H172.247H172.247ZM163.721 81.0995L161.552 78.8069H167.698C169.204 78.8069 170.328 78.4804 171.072 77.8266C171.815 77.1732 172.186 76.273 172.186 75.1271C172.186 73.9606 171.815 73.056 171.072 72.4121C170.328 71.7686 169.204 71.4469 167.698 71.4469H161.552L163.721 69.1242V81.0995ZM191.226 88.9421C189.559 88.9421 188.018 88.6706 186.602 88.1278C185.186 87.5849 183.961 86.8206 182.926 85.8352C181.892 84.8498 181.088 83.6936 180.516 82.3662C179.944 81.0389 179.658 79.591 179.658 78.0227C179.658 76.4541 179.944 75.0062 180.516 73.6789C181.089 72.3515 181.897 71.1953 182.941 70.2099C183.986 69.2245 185.211 68.4601 186.617 67.9173C188.023 67.3745 189.549 67.103 191.196 67.103C192.863 67.103 194.395 67.3745 195.79 67.9173C197.187 68.4601 198.401 69.2245 199.436 70.2099C200.47 71.1953 201.278 72.3464 201.861 73.6638C202.443 74.9809 202.735 76.4339 202.735 78.0224C202.735 79.591 202.443 81.044 201.861 82.3809C201.278 83.7182 200.47 84.8744 199.436 85.8499C198.401 86.8254 197.187 87.5842 195.79 88.1274C194.395 88.6703 192.873 88.9417 191.227 88.9417L191.226 88.9421ZM191.196 84.7793C192.14 84.7793 193.009 84.6184 193.802 84.2967C194.595 83.9749 195.293 83.5125 195.896 82.9091C196.498 82.306 196.965 81.592 197.297 80.7674C197.628 79.9429 197.794 79.028 197.794 78.0224C197.794 77.0167 197.628 76.1018 197.297 75.2773C196.965 74.4527 196.503 73.7387 195.911 73.1357C195.318 72.5322 194.62 72.0698 193.817 71.7481C193.014 71.4263 192.14 71.2654 191.196 71.2654C190.252 71.2654 189.384 71.4263 188.59 71.7481C187.797 72.0698 187.099 72.5322 186.496 73.1357C185.894 73.7387 185.427 74.4527 185.096 75.2773C184.764 76.1018 184.599 77.0167 184.599 78.0224C184.599 79.0078 184.764 79.9175 185.096 80.7524C185.427 81.5868 185.889 82.306 186.481 82.9091C187.074 83.5125 187.772 83.9749 188.575 84.2967C189.379 84.6184 190.252 84.7793 191.196 84.7793ZM210.778 88.5799L203.879 67.4648H208.94L214.935 86.1669H212.405L218.671 67.4648H223.19L229.215 86.1669H226.775L232.921 67.4648H237.59L230.691 88.5799H225.449L220.117 72.1704H221.503L216.02 88.5799H210.779H210.778ZM244.73 88.5799V71.4465H237.982V67.4648H256.359V71.4465H249.61V88.5799H244.73H244.73ZM273.44 67.4648H278.321V88.5799H273.44V67.4648ZM263.86 88.5799H258.98V67.4648H263.86V88.5799ZM273.801 79.9227H263.498V75.79H273.801V79.9227Z" fill="white"/>
</g>
<defs>
<clipPath id="clip0_614_457">
<rect width="307" height="98" fill="white"/>
</clipPath>
</defs>
</svg>
