<svg width="274" height="88" viewBox="0 0 274 88" fill="none" xmlns="http://www.w3.org/2000/svg">
<g clip-path="url(#clip0_614_526)">
<path fill-rule="evenodd" clip-rule="evenodd" d="M87.3548 -0.000158476H43.6776C19.655 -0.000158476 0.000366211 19.7997 0.000366211 43.9998V87.9998H30.8679V75.4224V56.9041L18.9959 68.8639V75.4224H12.4856V43.9998C12.4856 26.7421 26.5464 12.5773 43.6776 12.5773H74.8696V44.8181C74.8696 51.7628 72.5304 58.1927 68.609 63.3479V18.8838L56.737 30.8436V86.1892C74.3942 80.8477 87.3548 64.2849 87.3548 44.8178V-0.000488281V-0.000158476ZM37.8665 49.8539L49.7385 37.8942V87.6737C48.0174 87.888 46.2659 87.9998 44.4898 87.9998H37.8665V49.8539Z" fill="url(#paint0_linear_614_526)"/>
<path d="M105.324 0H102.308V88H105.324V0Z" fill="#042944"/>
<path d="M125.069 10.8475H134.103V14.3688H125.069V10.8475ZM125.391 21.2759H121.036V2.31542H135.259V5.83676H125.391V21.2759ZM138.217 21.2759V2.31542H142.573V21.2759H138.217ZM147.036 21.2759V2.31542H150.639L161.744 15.9671H159.996V2.31542H164.298V21.2759H160.722L149.591 7.6243H151.339V21.2759H147.037H147.036ZM166.287 21.2759L174.676 2.31542H178.979L187.394 21.2759H182.823L175.94 4.53633H177.661L170.751 21.2759H166.287ZM170.482 17.2131L171.638 13.8814H181.318L182.501 17.2131H170.482ZM189.357 21.2759V2.31542H192.96L204.065 15.9671H202.317V2.31542H206.619V21.2759H203.043L191.912 7.6243H193.66V21.2759H189.358H189.357ZM220.09 21.6011C218.638 21.6011 217.289 21.362 216.043 20.8835C214.797 20.4049 213.717 19.7232 212.803 18.8383C211.889 17.9535 211.176 16.9152 210.666 15.7233C210.155 14.5314 209.899 13.2224 209.899 11.7957C209.899 10.3693 210.155 9.05994 210.666 7.86803C211.177 6.67611 211.893 5.63788 212.817 4.75301C213.739 3.86815 214.82 3.18644 216.057 2.70789C217.293 2.22934 218.647 1.99023 220.117 1.99023C221.748 1.99023 223.222 2.27453 224.54 2.84344C225.857 3.41236 226.964 4.24742 227.86 5.34897L225.064 7.94916C224.418 7.20875 223.701 6.65368 222.913 6.28331C222.124 5.91327 221.264 5.72825 220.332 5.72825C219.453 5.72825 218.647 5.8727 217.912 6.16161C217.177 6.45052 216.54 6.86575 216.003 7.40762C215.465 7.94916 215.048 8.5903 214.752 9.33071C214.457 10.0711 214.309 10.8927 214.309 11.7957C214.309 12.6987 214.457 13.5202 214.752 14.2606C215.048 15.0011 215.465 15.6422 216.003 16.1837C216.54 16.7256 217.177 17.1408 217.912 17.4297C218.647 17.7187 219.453 17.8631 220.332 17.8631C221.264 17.8631 222.124 17.6781 222.913 17.308C223.701 16.938 224.419 16.3737 225.064 15.6152L227.86 18.2153C226.964 19.3169 225.857 20.1566 224.54 20.7344C223.222 21.3122 221.739 21.6011 220.09 21.6011ZM230.791 21.2759V2.31542H235.147V21.2759H230.791ZM237.137 21.2759L245.526 2.31542H249.828L258.244 21.2759H253.673L246.789 4.53633H248.51L241.6 21.2759H237.137ZM241.331 17.2131L242.487 13.8814H252.167L253.35 17.2131H241.331ZM260.206 21.2759V2.31542H264.562V17.7005H274V21.2759H260.206ZM121.036 50.4083V31.4478H125.391V46.8329H134.829V50.4083H121.036ZM141.282 39.0861H150.343V42.4989H141.282V39.0861ZM141.605 46.887H151.849V50.4083H137.276V31.4478H151.499V34.9691H141.605V46.8873V46.887ZM152.844 50.4083L161.233 31.4478H165.535L173.951 50.4083H169.38L162.497 33.6687H164.217L157.307 50.4083H152.844ZM157.038 46.3454L158.194 43.0137H167.874L169.057 46.3454H157.038ZM179.947 39.9802H188.981V43.5015H179.947V39.9802ZM180.269 50.4086H175.914V31.4481H190.137V34.9695H180.269V50.4086ZM130.124 79.8662C128.636 79.8662 127.269 79.6271 126.023 79.1485C124.778 78.67 123.693 77.9883 122.77 77.1034C121.847 76.2186 121.13 75.1803 120.619 73.9884C120.108 72.7965 119.853 71.4875 119.853 70.0608C119.853 68.6343 120.108 67.325 120.619 66.1331C121.13 64.9412 121.851 63.903 122.783 63.0181C123.715 62.1332 124.809 61.4515 126.064 60.973C127.319 60.4944 128.699 60.2553 130.205 60.2553C131.872 60.2553 133.373 60.5353 134.708 61.095C136.044 61.6547 137.168 62.4673 138.082 63.5329L135.286 66.1331C134.605 65.4108 133.861 64.8736 133.054 64.5213C132.247 64.1691 131.369 63.9933 130.419 63.9933C129.505 63.9933 128.671 64.1378 127.919 64.4267C127.166 64.7156 126.516 65.1308 125.97 65.6727C125.423 66.2142 125.001 66.8554 124.706 67.5958C124.41 68.3362 124.262 69.1577 124.262 70.0608C124.262 70.9456 124.41 71.7583 124.706 72.4987C125.001 73.2391 125.423 73.8845 125.97 74.4353C126.516 74.9861 127.162 75.4059 127.905 75.6948C128.649 75.9837 129.469 76.1282 130.366 76.1282C131.226 76.1282 132.064 75.9883 132.88 75.7083C133.696 75.4283 134.488 74.9544 135.259 74.2862L137.733 77.4553C136.711 78.2317 135.524 78.8276 134.171 79.2429C132.817 79.6581 131.468 79.8659 130.124 79.8659V79.8662ZM133.754 76.8867V69.7629H137.733V77.4557L133.754 76.8867ZM141.766 79.5413V60.5808H149.913C151.598 60.5808 153.05 60.8562 154.269 61.407C155.488 61.9578 156.429 62.7477 157.092 63.777C157.755 64.8063 158.087 66.0342 158.087 67.4609C158.087 68.8695 157.755 70.0838 157.092 71.1039C156.429 72.1243 155.488 72.905 154.269 73.4469C153.05 73.9884 151.598 74.2595 149.913 74.2595H144.186L146.122 72.3364V79.5413H141.766ZM153.732 79.5413L149.026 72.6613H153.678L158.437 79.5413H153.732H153.732ZM146.122 72.8239L144.186 70.7652H149.671C151.016 70.7652 152.019 70.472 152.683 69.885C153.346 69.2982 153.678 68.4899 153.678 67.4609C153.678 66.4134 153.346 65.6011 152.683 65.023C152.019 64.4452 151.016 64.1562 149.671 64.1562H144.186L146.122 62.0706V72.8239ZM170.671 79.8662C169.183 79.8662 167.807 79.6225 166.543 79.135C165.28 78.6476 164.186 77.9612 163.263 77.0764C162.34 76.1915 161.623 75.1533 161.112 73.9614C160.601 72.7694 160.346 71.4694 160.346 70.0611C160.346 68.6525 160.601 67.3524 161.112 66.1605C161.623 64.9686 162.344 63.9303 163.276 63.0455C164.209 62.1606 165.302 61.4743 166.557 60.9868C167.812 60.4994 169.174 60.2556 170.644 60.2556C172.132 60.2556 173.499 60.4994 174.744 60.9868C175.991 61.4743 177.075 62.1606 177.998 63.0455C178.921 63.9303 179.642 64.9639 180.162 66.147C180.682 67.3296 180.942 68.6343 180.942 70.0608C180.942 71.4694 180.682 72.7741 180.162 73.9746C179.642 75.1754 178.921 76.2136 177.998 77.0896C177.075 77.9655 175.991 78.6469 174.744 79.1347C173.499 79.6221 172.141 79.8659 170.671 79.8659L170.671 79.8662ZM170.644 76.1282C171.486 76.1282 172.262 75.9837 172.97 75.6948C173.678 75.4059 174.301 74.9907 174.838 74.4488C175.376 73.9073 175.793 73.2661 176.089 72.5257C176.385 71.7853 176.533 70.9638 176.533 70.0608C176.533 69.1577 176.385 68.3362 176.089 67.5958C175.793 66.8554 175.381 66.2142 174.852 65.6727C174.323 65.1308 173.7 64.7156 172.983 64.4267C172.266 64.1378 171.486 63.9933 170.644 63.9933C169.802 63.9933 169.026 64.1378 168.318 64.4267C167.61 64.7156 166.987 65.1308 166.449 65.6727C165.912 66.2142 165.495 66.8554 165.199 67.5958C164.904 68.3362 164.756 69.1577 164.756 70.0608C164.756 70.9456 164.904 71.7625 165.199 72.5122C165.495 73.2615 165.907 73.9073 166.436 74.4488C166.965 74.9907 167.588 75.4059 168.305 75.6948C169.022 75.9837 169.802 76.1282 170.644 76.1282ZM188.121 79.541L181.964 60.5805H186.481L191.831 77.3742H189.573L195.165 60.5805H199.199L204.576 77.3742H202.398L207.883 60.5805H212.051L205.894 79.541H201.215L196.456 64.806H197.693L192.8 79.541H188.121H188.121ZM218.424 79.541V64.1559H212.401V60.5805H228.802V64.1559H222.779V79.541H218.423H218.424ZM244.047 60.5805H248.403V79.541H244.047V60.5805ZM235.497 79.541H231.141V60.5805H235.497V79.541ZM244.37 71.7672H235.174V68.0562H244.37V71.7672Z" fill="#042944"/>
</g>
<defs>
<linearGradient id="paint0_linear_614_526" x1="0.000366211" y1="43.9998" x2="87.3548" y2="43.9998" gradientUnits="userSpaceOnUse">
<stop stop-color="#559242"/>
<stop offset="1" stop-color="#99C743"/>
</linearGradient>
<clipPath id="clip0_614_526">
<rect width="274" height="88" fill="white"/>
</clipPath>
</defs>
</svg>
