<svg width="142" height="45" viewBox="0 0 142 45" fill="none" xmlns="http://www.w3.org/2000/svg">
<g clip-path="url(#clip0_616_449)">
<path fill-rule="evenodd" clip-rule="evenodd" d="M45.2714 -7.54901e-05H22.6358C10.1861 -7.54901e-05 0.000183105 10.1249 0.000183105 22.4999V44.9999H15.9972V38.5683V29.0987L9.84461 35.2145V38.5683H6.47061V22.4999C6.47061 13.675 13.7576 6.43158 22.6358 6.43158H38.801V22.9183C38.801 26.4696 37.5887 29.7576 35.5565 32.3938V9.65652L29.4038 15.7723V44.074C38.5547 41.3426 45.2714 32.8729 45.2714 22.9182V-0.000244141V-7.54901e-05ZM19.6242 25.4935L25.7769 19.3777V44.8331C24.8849 44.9428 23.9772 44.9999 23.0568 44.9999H19.6242V25.4935Z" fill="url(#paint0_linear_616_449)"/>
<path d="M54.5838 0H53.0212V45H54.5838V0Z" fill="#042944"/>
<path d="M64.8166 5.5471H69.4986V7.34778H64.8166V5.5471ZM64.9839 10.8798H62.7265V1.18411H70.0978V2.98479H64.9839V10.8798ZM71.6306 10.8798V1.18411H73.888V10.8798H71.6306ZM76.2011 10.8798V1.18411H78.0684L83.8234 8.16506H82.9177V1.18411H85.1473V10.8798H83.294L77.5252 3.89888H78.431V10.8798H76.2014H76.2011ZM86.1782 10.8798L90.5257 1.18411H92.7553L97.1168 10.8798H94.7479L91.1807 2.3198H92.0724L88.4913 10.8798H86.1782ZM88.352 8.80222L88.9511 7.09852H93.9676L94.5808 8.80222H88.352ZM98.134 10.8798V1.18411H100.001L105.756 8.16506H104.851V1.18411H107.08V10.8798H105.227L99.458 3.89888H100.364V10.8798H98.1343H98.134ZM114.061 11.0461C113.309 11.0461 112.61 10.9238 111.964 10.6791C111.318 10.4344 110.759 10.0858 110.285 9.63333C109.811 9.18084 109.442 8.64993 109.177 8.04043C108.912 7.43093 108.78 6.76155 108.78 6.03197C108.78 5.30256 108.912 4.63301 109.177 4.02351C109.442 3.41401 109.813 2.8831 110.292 2.43061C110.77 1.97812 111.33 1.62952 111.971 1.38481C112.612 1.14009 113.313 1.01782 114.075 1.01782C114.92 1.01782 115.684 1.1632 116.367 1.45412C117.05 1.74504 117.624 2.17207 118.088 2.73536L116.639 4.065C116.304 3.68638 115.933 3.40254 115.524 3.21315C115.115 3.02392 114.67 2.92931 114.187 2.92931C113.731 2.92931 113.313 3.00318 112.932 3.15091C112.552 3.29865 112.222 3.51098 111.943 3.78808C111.664 4.065 111.448 4.39286 111.295 4.77148C111.142 5.1501 111.065 5.57021 111.065 6.03197C111.065 6.49374 111.142 6.91384 111.295 7.29246C111.448 7.67108 111.664 7.99894 111.943 8.27587C112.222 8.55296 112.551 8.76529 112.932 8.91303C113.313 9.06076 113.731 9.13463 114.187 9.13463C114.67 9.13463 115.115 9.04002 115.524 8.85079C115.933 8.66157 116.305 8.37301 116.639 7.98511L118.088 9.31475C117.624 9.87805 117.05 10.3074 116.367 10.6029C115.684 10.8984 114.916 11.0461 114.061 11.0461ZM119.607 10.8798V1.18411H121.864V10.8798H119.607ZM122.896 10.8798L127.243 1.18411H129.473L133.834 10.8798H131.465L127.898 2.3198H128.79L125.209 10.8798H122.896ZM125.069 8.80222L125.669 7.09852H130.685L131.298 8.80222H125.069ZM134.851 10.8798V1.18411H137.109V9.05149H142V10.8798H134.851ZM62.7265 25.7771V16.0813H64.9839V23.9487H69.8749V25.7771H62.7265ZM73.2192 19.9873H77.9151V21.7325H73.2192V19.9873ZM73.3865 23.9764H78.6955V25.7771H71.143V16.0813H78.5143V17.882H73.3865V23.9766V23.9764ZM79.2112 25.7771L83.5587 16.0813H85.7883L90.1498 25.7771H87.7809L84.2136 17.217H85.1054L81.5242 25.7771H79.2112ZM81.3849 23.6995L81.984 21.9958H87.0006L87.6138 23.6995H81.3849ZM93.257 20.4445H97.939V22.2452H93.257V20.4445ZM93.4243 25.7772H91.1669V16.0815H98.5383V17.8822H93.4243V25.7772ZM67.4364 40.8408C66.6655 40.8408 65.9571 40.7185 65.3114 40.4738C64.6658 40.2291 64.1037 39.8805 63.6254 39.428C63.1469 38.9755 62.7753 38.4446 62.5107 37.8351C62.2458 37.2256 62.1135 36.5562 62.1135 35.8266C62.1135 35.0972 62.2458 34.4277 62.5107 33.8182C62.7755 33.2086 63.1493 32.6777 63.6323 32.2253C64.1154 31.7728 64.6821 31.4242 65.3324 31.1794C65.9827 30.9347 66.698 30.8125 67.4783 30.8125C68.3423 30.8125 69.1204 30.9556 69.8123 31.2418C70.5044 31.528 71.0873 31.9436 71.561 32.4885L70.1117 33.8182C69.7587 33.4488 69.3732 33.1741 68.9551 32.994C68.5371 32.8138 68.0818 32.7239 67.5896 32.7239C67.1159 32.7239 66.6838 32.7978 66.2937 32.9456C65.9035 33.0933 65.5669 33.3056 65.2835 33.5827C65.0002 33.8596 64.7818 34.1875 64.6286 34.5661C64.4754 34.9447 64.3987 35.3648 64.3987 35.8266C64.3987 36.2791 64.4754 36.6947 64.6286 37.0733C64.7818 37.4519 65.0002 37.7819 65.2835 38.0636C65.5669 38.3452 65.9013 38.5599 66.2868 38.7077C66.6723 38.8554 67.0973 38.9293 67.5618 38.9293C68.0077 38.9293 68.442 38.8578 68.8647 38.7146C69.2875 38.5714 69.6984 38.329 70.098 37.9874L71.38 39.6079C70.8505 40.0049 70.2351 40.3097 69.5337 40.522C68.8323 40.7343 68.1333 40.8406 67.4364 40.8406V40.8408ZM69.3177 39.3172V35.6743H71.38V39.6081L69.3177 39.3172ZM73.4701 40.6746V30.9789H77.6923C78.5656 30.9789 79.3179 31.1197 79.9497 31.4014C80.5814 31.683 81.069 32.087 81.4128 32.6133C81.7565 33.1397 81.9284 33.7676 81.9284 34.4971C81.9284 35.2174 81.7565 35.8384 81.4128 36.3601C81.069 36.8819 80.5814 37.2811 79.9497 37.5581C79.3181 37.8351 78.5656 37.9737 77.6923 37.9737H74.7241L75.7276 36.9903V40.6746H73.4701ZM79.6711 40.6746L77.2327 37.1564H79.6433L82.1098 40.6746H79.6713H79.6711ZM75.7277 37.2396L74.7243 36.1868H77.5669C78.2636 36.1868 78.7838 36.0369 79.1275 35.7367C79.4713 35.4367 79.6431 35.0233 79.6431 34.4971C79.6431 33.9615 79.4713 33.5461 79.1275 33.2505C78.7838 32.955 78.2636 32.8073 77.5669 32.8073H74.7243L75.7277 31.7407V37.2396ZM88.4499 40.8408C87.6787 40.8408 86.9658 40.7161 86.3109 40.4669C85.656 40.2176 85.0893 39.8666 84.6108 39.4141C84.1324 38.9617 83.7608 38.4307 83.4961 37.8212C83.2313 37.2117 83.0989 36.5469 83.0989 35.8268C83.0989 35.1065 83.2313 34.4417 83.4961 33.8322C83.761 33.2226 84.1347 32.6917 84.6178 32.2392C85.1008 31.7868 85.6675 31.4358 86.3178 31.1865C86.9682 30.9373 87.6742 30.8126 88.436 30.8126C89.2071 30.8126 89.9155 30.9373 90.561 31.1865C91.2068 31.4358 91.7687 31.7868 92.2472 32.2392C92.7255 32.6917 93.0994 33.2203 93.3689 33.8252C93.6383 34.43 93.773 35.0972 93.773 35.8266C93.773 36.5469 93.6383 37.2141 93.3689 37.828C93.0994 38.442 92.7255 38.973 92.2472 39.4209C91.7687 39.8688 91.2068 40.2173 90.561 40.4667C89.9155 40.716 89.2117 40.8406 88.45 40.8406L88.4499 40.8408ZM88.436 38.9293C88.8725 38.9293 89.2745 38.8554 89.6413 38.7077C90.0083 38.5599 90.331 38.3476 90.6097 38.0705C90.8883 37.7936 91.1043 37.4657 91.2577 37.0871C91.4111 36.7085 91.4878 36.2884 91.4878 35.8266C91.4878 35.3648 91.4111 34.9447 91.2577 34.5661C91.1045 34.1875 90.8907 33.8596 90.6167 33.5827C90.3427 33.3056 90.0198 33.0933 89.6482 32.9456C89.2767 32.7978 88.8725 32.7239 88.436 32.7239C87.9994 32.7239 87.5976 32.7978 87.2306 32.9456C86.8637 33.0933 86.5408 33.3056 86.2622 33.5827C85.9834 33.8596 85.7674 34.1875 85.6142 34.5661C85.461 34.9447 85.3843 35.3648 85.3843 35.8266C85.3843 36.2791 85.461 36.6968 85.6142 37.0802C85.7674 37.4634 85.9812 37.7936 86.2552 38.0705C86.5292 38.3476 86.8521 38.5599 87.2237 38.7077C87.5953 38.8554 87.9994 38.9293 88.436 38.9293ZM97.4935 40.6745L94.3024 30.9788H96.6433L99.4163 39.5664H98.2458L101.144 30.9788H103.234L106.021 39.5664H104.893L107.735 30.9788H109.895L106.704 40.6745H104.279L101.813 33.1395H102.454L99.9182 40.6745H97.4936H97.4935ZM113.198 40.6745V32.8071H110.076V30.9788H118.576V32.8071H115.455V40.6745H113.198H113.198ZM126.477 30.9788H128.735V40.6745H126.477V30.9788ZM122.046 40.6745H119.789V30.9788H122.046V40.6745ZM126.644 36.6992H121.879V34.8016H126.644V36.6992Z" fill="#042944"/>
</g>
<defs>
<linearGradient id="paint0_linear_616_449" x1="0.000183105" y1="22.4999" x2="45.2714" y2="22.4999" gradientUnits="userSpaceOnUse">
<stop stop-color="#559242"/>
<stop offset="1" stop-color="#99C743"/>
</linearGradient>
<clipPath id="clip0_616_449">
<rect width="142" height="45" fill="white"/>
</clipPath>
</defs>
</svg>
