<svg width="24" height="24" viewBox="0 0 24 24" fill="none" xmlns="http://www.w3.org/2000/svg">
<g clip-path="url(#clip0_746_781)">
<path d="M12 22.5C9.21523 22.5 6.54451 21.3938 4.57538 19.4246C2.60625 17.4555 1.5 14.7848 1.5 12C1.5 9.21523 2.60625 6.54451 4.57538 4.57538C6.54451 2.60625 9.21523 1.5 12 1.5C14.7848 1.5 17.4555 2.60625 19.4246 4.57538C21.3938 6.54451 22.5 9.21523 22.5 12C22.5 14.7848 21.3938 17.4555 19.4246 19.4246C17.4555 21.3938 14.7848 22.5 12 22.5ZM12 24C15.1826 24 18.2348 22.7357 20.4853 20.4853C22.7357 18.2348 24 15.1826 24 12C24 8.8174 22.7357 5.76516 20.4853 3.51472C18.2348 1.26428 15.1826 0 12 0C8.8174 0 5.76516 1.26428 3.51472 3.51472C1.26428 5.76516 0 8.8174 0 12C0 15.1826 1.26428 18.2348 3.51472 20.4853C5.76516 22.7357 8.8174 24 12 24Z" fill="#99C743"/>
<path d="M17 12.5C17 13.6935 16.5259 14.8381 15.682 15.682C14.8381 16.5259 13.6935 17 12.5 17C11.3065 17 10.1619 16.5259 9.31802 15.682C8.47411 14.8381 8 13.6935 8 12.5C8 11.3065 8.47411 10.1619 9.31802 9.31802C10.1619 8.47411 11.3065 8 12.5 8C13.6935 8 14.8381 8.47411 15.682 9.31802C16.5259 10.1619 17 11.3065 17 12.5Z" fill="#99C743"/>
</g>
<defs>
<clipPath id="clip0_746_781">
<rect width="24" height="24" fill="white"/>
</clipPath>
</defs>
</svg>
